<?xml version="1.0" standalone="no"?>
<!DOCTYPE svg PUBLIC "-//W3C//DTD SVG 20010904//EN"
 "http://www.w3.org/TR/2001/REC-SVG-20010904/DTD/svg10.dtd">
<svg version="1.0" xmlns="http://www.w3.org/2000/svg"
 width="512.000000pt" height="512.000000pt" viewBox="0 0 512.000000 512.000000"
 preserveAspectRatio="xMidYMid meet">
<metadata>
Created by potrace 1.14, written by Peter Selinger 2001-2017
</metadata>
<g transform="translate(0.000000,512.000000) scale(0.100000,-0.100000)"
fill="#000000" stroke="none">
<path d="M659 4548 c0 -13 -1 -596 -1 -1297 l-1 -1274 -108 -94 c-73 -63 -119
-111 -139 -146 -34 -60 -48 -124 -30 -140 10 -9 11 -9 6 1 -4 7 -1 12 8 12 9
0 16 -7 16 -15 0 -8 4 -15 10 -15 5 0 7 7 4 15 -4 8 -1 15 6 15 6 0 8 5 4 13
-5 8 -2 8 9 -2 14 -11 20 -11 34 0 28 23 8 -5 -99 -138 -96 -119 -98 -123 -71
-124 15 -1 32 -1 36 0 5 1 6 -3 3 -8 -4 -5 -15 -8 -26 -6 -12 2 -18 0 -15 -5
6 -9 37 -6 55 5 6 3 10 1 10 -4 0 -6 -5 -11 -12 -11 -6 0 -9 -3 -5 -6 3 -3 12
-2 19 2 18 12 32 12 41 -1 5 -5 6 0 2 12 -3 12 -1 25 6 29 7 4 9 3 5 -4 -3 -6
-2 -13 4 -17 6 -4 7 -11 4 -17 -4 -6 -2 -8 4 -5 5 4 7 17 4 30 -5 21 -5 21 12
5 20 -21 31 -24 20 -6 -5 8 -2 9 11 4 16 -6 16 -4 4 11 -12 14 -12 16 0 8 11
-6 13 -4 8 11 -7 18 -6 18 7 2 17 -23 27 -23 19 0 -6 14 -4 15 9 4 13 -10 18
-10 24 -1 4 8 3 9 -4 5 -7 -4 -12 -2 -12 3 0 6 9 11 20 11 11 0 20 5 20 10 0
6 6 9 13 8 6 -2 11 3 9 10 -1 6 2 12 6 12 4 0 14 -6 22 -12 8 -7 6 -2 -5 11
l-20 24 25 -13 25 -13 -20 24 c-11 13 -13 18 -4 11 9 -6 18 -10 21 -7 3 3 5
-162 6 -367 0 -205 1 -383 1 -395 1 -25 28 -56 42 -48 5 4 9 1 9 -5 0 -6 5 -8
11 -4 8 4 7 9 -2 16 -11 8 -10 9 3 5 9 -3 19 -3 21 1 2 4 2 1 1 -6 -2 -6 0
-12 4 -13 4 0 14 -2 23 -4 12 -2 15 3 12 19 -3 15 -2 17 5 8 5 -8 12 -13 16
-13 26 4 36 0 30 -11 -4 -8 -3 -10 2 -5 5 5 9 13 9 18 0 5 5 8 10 7 6 -2 9 -6
8 -10 -4 -11 26 -17 33 -6 4 7 3 8 -4 4 -7 -4 -12 -3 -12 2 0 6 7 13 16 16 8
3 12 2 9 -4 -9 -14 8 -12 24 3 11 10 12 9 6 -1 -5 -10 -1 -13 16 -10 13 2 28
8 32 13 5 6 7 3 3 -7 -3 -10 -2 -18 2 -19 4 0 14 -2 23 -4 12 -2 15 3 12 19
-3 15 -2 17 5 8 5 -8 12 -13 16 -13 26 4 36 0 30 -11 -4 -8 -3 -10 2 -5 5 5 9
13 9 18 0 5 4 8 10 7 5 -2 9 -6 8 -10 -4 -11 26 -17 33 -6 4 7 3 8 -4 4 -7 -4
-12 -3 -12 2 0 6 7 13 16 16 8 3 12 2 9 -4 -9 -14 8 -12 24 2 11 11 12 10 6 0
-5 -10 -1 -13 16 -10 13 2 28 8 32 13 5 6 7 3 3 -7 -3 -10 -2 -18 2 -19 4 0
14 -2 23 -4 12 -2 15 3 12 19 -3 15 -2 17 5 8 5 -8 12 -13 16 -13 26 4 36 0
30 -11 -4 -8 -3 -10 2 -5 5 5 9 13 9 18 0 5 4 8 10 7 5 -2 9 -6 8 -10 -4 -11
26 -17 33 -6 4 7 3 8 -4 4 -7 -4 -12 -3 -12 2 0 6 7 13 16 16 8 3 12 2 9 -4
-9 -14 8 -12 24 3 11 10 12 9 6 -1 -5 -10 -1 -13 16 -10 13 2 28 8 32 13 5 6
7 3 3 -7 -3 -10 -2 -18 2 -19 4 0 14 -2 23 -4 12 -2 15 3 12 19 -3 15 -2 17 5
8 5 -8 12 -13 16 -13 26 4 36 0 30 -11 -4 -8 -3 -10 2 -5 5 5 9 13 9 18 0 5 5
8 10 7 6 -2 9 -6 8 -10 -4 -11 26 -17 33 -6 4 7 3 8 -4 4 -7 -4 -12 -3 -12 2
0 6 7 13 16 16 8 3 12 2 9 -4 -9 -14 8 -12 24 3 11 10 12 9 6 -1 -5 -10 -1
-13 16 -10 13 2 28 8 32 13 5 6 7 3 3 -8 -3 -9 -2 -17 2 -18 4 0 14 -2 23 -4
13 -2 15 2 11 19 -5 20 -5 20 12 3 18 -18 41 -24 31 -8 -3 5 0 13 6 17 8 4 9
3 5 -4 -8 -13 6 -17 18 -5 10 11 37 12 30 2 -3 -5 -10 -6 -16 -3 -7 5 -8 2 -3
-6 5 -9 4 -11 -3 -6 -7 4 -12 2 -12 -3 0 -14 17 -14 26 0 3 6 14 9 24 6 14 -3
17 0 13 12 -4 14 -3 14 6 1 11 -17 83 -22 74 -5 -4 5 -3 7 2 3 4 -4 14 -3 22
4 8 6 13 7 11 2 -2 -5 2 -9 7 -9 6 0 9 4 7 9 -2 5 5 3 14 -5 20 -16 106 -20
97 -4 -4 5 -3 7 2 3 4 -4 14 -3 22 4 8 6 13 7 11 2 -2 -5 2 -9 7 -9 6 0 9 4 7
9 -2 5 5 3 14 -5 20 -16 106 -20 97 -4 -4 5 -3 7 2 3 4 -4 14 -3 22 4 8 6 13
7 11 2 -2 -5 1 -9 7 -9 5 0 9 4 7 9 -2 5 5 3 14 -5 20 -16 106 -20 97 -4 -4 5
-3 7 2 3 4 -4 14 -3 22 4 8 6 13 7 11 2 -2 -5 2 -9 7 -9 5 0 9 4 7 10 -2 5 5
2 15 -6 22 -20 70 -19 84 1 9 13 10 12 5 -3 -3 -9 -2 -17 2 -18 4 0 14 -2 23
-4 12 -2 15 3 12 19 -3 15 -2 17 5 8 5 -8 12 -13 16 -13 26 4 36 0 30 -11 -4
-8 -3 -10 2 -5 5 5 9 13 9 18 0 5 4 8 10 7 5 -2 9 -6 8 -10 -4 -11 26 -17 33
-6 4 7 3 8 -4 4 -7 -4 -12 -3 -12 2 0 6 7 13 16 16 8 3 12 2 9 -4 -9 -14 8
-12 24 2 11 11 12 10 6 0 -5 -10 -1 -13 16 -10 13 2 28 8 32 13 5 6 7 3 3 -7
-3 -10 -2 -18 2 -19 4 0 14 -2 23 -4 12 -2 15 3 12 19 -3 15 -2 17 5 8 5 -8
12 -13 16 -13 26 4 36 0 30 -11 -4 -8 -3 -10 2 -5 5 5 9 13 9 18 0 5 5 8 10 7
6 -2 9 -6 8 -10 -4 -11 26 -17 33 -6 4 7 3 8 -4 4 -7 -4 -12 -3 -12 2 0 6 7
13 16 16 8 3 12 2 9 -4 -9 -14 8 -12 24 2 11 11 12 10 6 0 -5 -10 -1 -13 16
-10 13 2 28 8 32 13 5 6 7 3 3 -7 -3 -10 -2 -18 2 -19 4 0 14 -2 23 -4 13 -2
15 2 11 19 -5 20 -5 20 12 3 18 -17 19 -17 32 0 13 17 14 17 7 -2 -6 -19 -5
-19 13 -3 13 12 24 14 34 8 13 -9 13 -10 0 -11 -8 -1 -18 -1 -22 0 -5 0 -8 -4
-8 -9 0 -17 19 -11 42 12 16 16 20 17 15 5 -3 -9 -3 -17 1 -18 4 0 14 -2 23
-4 12 -2 15 3 12 19 -3 13 -2 17 4 9 4 -6 15 -13 23 -15 15 -3 47 -46 46 -60
-1 -4 9 -15 22 -23 13 -10 19 -21 15 -28 -4 -8 -1 -7 9 1 13 10 18 10 24 1 5
-8 3 -9 -7 -4 -11 7 -12 6 -2 -7 17 -20 62 -17 79 7 8 10 14 13 14 7 0 -7 6
-11 13 -9 6 1 11 -4 10 -10 -2 -7 2 -13 7 -13 6 0 10 -7 10 -15 0 -8 5 -15 11
-15 7 0 9 -10 7 -25 -3 -13 -1 -22 4 -19 4 3 11 -2 14 -10 3 -9 16 -16 28 -16
17 0 18 -2 6 -10 -12 -7 -10 -9 8 -7 26 2 26 1 11 30 l-12 22 23 -20 c13 -11
20 -14 16 -7 -4 6 -2 13 3 13 6 1 17 2 24 3 6 0 12 13 11 28 0 15 4 24 10 21
5 -4 7 2 4 14 -4 16 -1 19 18 17 13 -1 22 2 18 7 -3 5 -11 6 -17 3 -8 -5 -8
-3 1 7 16 17 16 32 0 23 -10 -5 -10 -3 0 7 11 12 14 12 22 -1 5 -8 10 -11 10
-6 0 5 -8 18 -17 29 -10 12 -12 17 -4 12 9 -5 12 -3 9 6 -12 34 9 47 76 45 40
-1 62 3 58 9 -3 6 -2 7 3 3 4 -4 14 -3 22 4 8 6 13 7 11 2 -2 -5 2 -9 7 -9 6
0 9 4 7 9 -2 5 5 3 14 -5 20 -16 106 -20 97 -4 -4 5 -3 7 2 3 4 -4 14 -3 22 4
8 6 13 7 11 2 -2 -5 2 -9 7 -9 6 0 9 4 7 9 -2 5 5 3 14 -5 20 -16 106 -20 97
-4 -4 5 -3 7 2 3 4 -4 14 -3 22 4 8 6 13 7 11 2 -2 -5 2 -9 7 -9 6 0 9 4 7 9
-2 5 5 3 14 -5 20 -16 106 -20 97 -4 -4 5 -3 7 2 3 4 -4 14 -3 22 4 8 6 13 7
11 2 -2 -5 2 -9 7 -9 5 0 9 4 7 10 -2 5 5 3 15 -6 12 -10 36 -15 73 -14 30 1
60 -2 67 -7 7 -6 14 -4 19 3 4 7 3 9 -4 5 -6 -3 -13 -2 -17 4 -3 5 0 10 7 10
9 0 9 3 -2 10 -8 5 -10 10 -4 10 7 0 15 7 18 16 6 14 4 15 -9 4 -13 -11 -16
-11 -13 1 2 8 9 19 17 25 11 9 12 12 1 19 -9 6 -11 4 -5 -5 6 -9 4 -11 -4 -5
-9 5 -10 10 -2 18 13 13 15 61 3 53 -4 -2 -8 6 -8 20 0 27 6 30 26 11 9 -7 8
-4 -1 8 -9 11 -14 26 -11 34 3 9 0 11 -8 6 -8 -5 -7 1 3 15 13 18 14 27 5 37
-6 8 -12 32 -13 54 -1 25 1 36 6 27 6 -9 9 -6 9 10 0 13 -4 21 -8 18 -4 -2 -8
6 -8 20 0 27 6 30 26 11 12 -10 12 -9 2 4 -9 12 -9 19 1 29 10 12 9 12 -4 2
-14 -10 -18 -10 -22 2 -4 9 -1 18 5 22 7 5 8 2 3 -6 -6 -9 -4 -11 5 -5 10 6 9
11 -5 22 -11 7 -14 13 -8 13 6 0 14 7 17 16 6 14 4 15 -9 4 -13 -11 -16 -11
-13 1 2 8 9 19 17 25 11 9 12 12 1 19 -9 6 -11 4 -5 -5 5 -9 4 -11 -4 -6 -8 5
-5 16 11 39 20 29 20 30 2 14 -20 -16 -21 -16 -19 3 1 11 5 23 10 27 4 5 5 2
0 -6 -6 -10 -4 -12 5 -6 10 6 9 11 -5 22 -11 7 -14 13 -8 13 6 0 14 7 17 16 6
14 4 15 -9 4 -13 -11 -16 -11 -13 1 2 8 9 19 17 25 11 9 12 12 1 19 -9 6 -11
4 -5 -5 6 -9 4 -11 -4 -5 -9 5 -10 10 -2 18 13 13 15 61 3 53 -4 -2 -8 6 -8
20 0 27 6 30 26 12 9 -8 8 -5 -1 7 -9 11 -14 26 -11 34 3 9 0 11 -8 6 -8 -5
-7 1 3 15 13 18 14 27 5 37 -6 8 -12 32 -13 54 -1 25 1 36 6 27 6 -9 9 -6 9
10 0 13 -4 21 -8 18 -4 -2 -8 6 -8 20 0 27 6 30 26 12 12 -11 12 -10 2 3 -9
12 -9 19 1 29 10 12 9 12 -4 2 -14 -10 -18 -10 -22 2 -4 9 -1 18 5 22 7 5 8 2
3 -6 -6 -9 -4 -11 5 -5 10 6 9 11 -5 22 -11 7 -14 13 -8 13 6 0 14 7 17 16 6
14 4 15 -9 4 -13 -11 -16 -11 -13 1 2 8 9 19 17 25 11 9 12 12 1 19 -9 6 -11
4 -5 -5 5 -9 4 -11 -4 -6 -8 5 -5 16 11 39 20 29 20 30 2 14 -20 -16 -21 -16
-19 3 1 11 5 23 10 27 4 5 5 2 0 -6 -6 -10 -4 -12 5 -6 10 6 9 11 -5 22 -11 7
-14 13 -8 13 6 0 14 7 17 16 6 14 4 15 -9 4 -13 -11 -16 -11 -13 1 2 8 9 19
17 25 11 9 12 12 1 19 -9 6 -11 4 -5 -5 6 -9 4 -11 -4 -5 -9 5 -10 10 -2 18
13 13 15 61 3 53 -4 -2 -8 6 -8 20 0 27 6 30 26 12 9 -8 8 -5 -1 7 -9 11 -14
26 -11 34 3 9 0 11 -8 6 -8 -5 -7 1 3 15 13 18 14 27 5 37 -6 8 -12 32 -13 54
-1 25 1 36 6 27 6 -9 9 -6 9 10 0 13 -4 21 -8 18 -4 -2 -8 6 -8 20 0 27 6 30
26 12 12 -11 12 -10 2 3 -9 12 -9 19 1 29 10 12 9 12 -4 2 -14 -10 -18 -10
-22 2 -4 9 -1 18 5 22 7 5 8 2 3 -6 -6 -9 -4 -11 5 -5 10 6 9 11 -5 22 -11 7
-14 13 -8 13 6 0 14 7 17 16 6 14 4 15 -9 4 -13 -11 -16 -11 -13 1 2 8 9 19
17 25 11 9 12 12 1 19 -9 6 -11 4 -5 -5 5 -9 4 -11 -4 -6 -8 5 -5 16 11 39 20
29 20 30 2 14 -20 -16 -21 -16 -19 3 1 11 5 23 10 27 4 5 5 2 0 -6 -6 -10 -4
-12 5 -6 10 6 9 11 -5 22 -11 7 -14 13 -8 13 6 0 14 7 17 16 6 14 4 15 -9 4
-13 -11 -16 -11 -13 1 2 8 9 19 17 25 11 9 12 12 1 19 -9 6 -11 4 -5 -5 5 -9
4 -11 -4 -6 -8 5 -9 12 -3 19 5 7 12 23 14 37 3 14 9 34 13 44 7 15 5 17 -6
11 -11 -7 -12 -6 -2 7 7 8 10 18 6 22 -4 4 0 4 10 0 9 -3 14 -11 10 -17 -3 -6
-1 -7 6 -3 6 4 9 12 6 17 -4 5 -1 9 5 9 6 0 8 5 5 10 -4 6 -12 7 -18 3 -7 -4
-6 0 2 10 14 18 26 23 17 8 -3 -5 0 -11 8 -14 14 -6 16 9 3 30 -4 6 -2 15 4
19 7 4 9 3 6 -3 -4 -6 2 -13 13 -16 17 -4 18 -2 9 14 -6 13 -6 19 0 19 6 0 7
7 4 17 -5 12 -3 14 8 8 11 -7 11 -5 -1 10 -14 17 -13 18 2 12 13 -4 15 -2 11
10 -5 12 -3 14 7 8 8 -5 11 -4 6 3 -4 6 -14 8 -24 5 -13 -4 -11 0 6 16 26 25
28 33 7 25 -11 -5 -15 1 -15 20 0 21 -5 26 -26 26 -16 0 -24 5 -21 13 2 6 8
11 13 10 5 -1 8 16 8 36 -1 26 2 38 12 38 9 0 10 -5 3 -18 -6 -12 -5 -20 3
-25 7 -4 10 -3 5 1 -4 5 0 19 9 33 9 14 11 21 4 17 -8 -5 -11 -3 -8 6 3 8 10
13 16 12 6 -2 9 3 6 11 -3 7 2 18 10 25 11 10 13 18 6 31 -7 13 -7 21 0 25 6
4 8 10 5 15 -3 4 5 7 18 6 16 -2 23 2 23 15 0 12 -4 15 -11 9 -8 -6 -12 -5
-12 4 0 8 9 13 23 11 15 -1 21 2 17 11 -3 8 -8 12 -12 9 -4 -2 -8 2 -8 9 0 7
6 13 13 13 7 0 11 -4 8 -8 -2 -4 0 -11 6 -14 6 -4 10 -3 9 2 -1 4 0 10 1 13 8
21 7 46 -2 57 -8 11 -7 12 7 7 14 -6 16 -4 10 6 -5 9 -4 11 3 6 7 -4 12 -2 12
4 0 6 4 8 10 5 17 -10 11 7 -7 22 -10 8 -12 12 -6 8 7 -3 21 -1 30 5 16 11 16
11 1 6 -10 -3 -20 -1 -23 4 -4 6 1 10 9 10 18 0 21 15 7 25 -5 3 -8 16 -5 30
2 13 0 27 -6 30 -6 4 -8 10 -6 14 3 4 2 19 -2 34 -7 25 -8 25 -77 -40 -99 -94
-167 -156 -187 -171 -14 -11 -16 -11 -13 5 1 10 9 17 16 15 10 -1 9 2 -2 10
-14 11 -14 15 -2 26 11 11 11 17 2 28 -7 8 -13 33 -14 55 -1 25 1 36 6 27 6
-9 9 -6 9 10 0 13 -4 21 -8 18 -4 -2 -8 6 -8 20 0 27 6 30 26 12 12 -11 12
-10 2 3 -9 12 -9 19 1 29 10 12 9 12 -4 2 -14 -10 -18 -10 -22 2 -4 9 -1 18 5
22 7 5 8 2 3 -6 -6 -9 -4 -11 5 -5 10 6 9 11 -5 22 -11 7 -14 13 -8 13 6 0 14
7 17 16 6 14 4 15 -9 4 -13 -11 -16 -11 -13 1 2 8 9 19 17 25 11 9 12 12 1 19
-9 6 -11 4 -5 -5 5 -9 4 -11 -4 -6 -8 5 -5 16 11 39 20 29 20 30 2 14 -20 -16
-21 -16 -19 3 1 11 5 23 10 27 4 5 5 2 0 -6 -6 -10 -4 -12 5 -6 10 6 9 11 -5
22 -11 7 -14 13 -8 13 6 0 14 7 17 16 6 14 4 15 -9 4 -13 -11 -16 -11 -13 1 2
8 9 19 17 25 11 9 12 12 1 19 -9 6 -11 4 -5 -5 6 -9 4 -11 -4 -5 -9 5 -10 10
-2 18 13 13 15 61 3 53 -4 -2 -8 6 -8 20 0 27 6 30 26 12 9 -8 8 -5 -1 7 -9
11 -14 26 -11 34 3 9 0 11 -8 6 -8 -5 -7 1 3 15 13 18 14 27 5 37 -6 8 -12 32
-13 54 -1 25 1 36 6 27 6 -9 9 -6 9 10 0 13 -4 21 -8 18 -4 -2 -8 6 -8 20 0
27 6 30 26 12 12 -11 12 -10 2 3 -9 12 -9 19 1 29 10 12 9 12 -4 2 -14 -10
-18 -10 -22 2 -4 9 -1 18 5 22 7 5 8 2 3 -6 -6 -9 -4 -11 5 -5 10 6 9 11 -5
22 -11 7 -14 13 -8 13 6 0 14 7 17 16 6 14 4 15 -9 4 -13 -11 -16 -11 -13 1 2
8 9 19 17 25 11 9 12 12 1 19 -9 6 -11 4 -5 -5 5 -9 4 -11 -3 -6 -9 5 -8 12 1
27 10 16 9 21 -3 29 -10 6 -11 10 -2 10 6 0 12 5 12 11 0 5 -6 7 -12 3 -8 -5
-7 0 2 11 9 11 10 16 3 11 -9 -5 -13 0 -13 13 0 21 -4 21 -324 21 l-323 0 -31
-50 c-20 -32 -44 -56 -64 -64 -57 -24 -68 -23 -86 9 -9 17 -20 32 -24 33 -5 2
-8 9 -8 15 -1 7 -9 22 -19 35 l-19 22 -1236 0 c-1092 0 -1236 -2 -1236 -15 0
-8 -1 -17 -2 -20 0 -2 -11 -41 -22 -85 -20 -75 -39 -104 -42 -63 -1 10 -6 35
-12 56 -8 28 -8 36 1 30 8 -5 8 -2 0 9 -7 8 -10 18 -6 21 3 4 1 7 -6 7 -7 0
-9 5 -6 10 3 6 1 10 -4 10 -6 0 -11 9 -11 20 0 19 -7 20 -205 20 l-205 0 -1
-22z m586 -498 c-3 -5 -2 -10 4 -10 6 0 8 -8 5 -17 -5 -15 -4 -16 5 -3 9 13
14 13 32 2 15 -10 19 -10 14 -1 -6 8 1 10 23 7 22 -3 29 -1 23 6 -6 7 -1 11
15 12 20 2 23 -1 13 -12 -7 -8 -9 -17 -5 -21 3 -3 6 -1 6 5 0 7 9 12 21 12 11
0 17 4 14 10 -4 6 4 6 21 0 21 -8 30 -8 37 2 6 9 7 8 3 -4 -3 -10 -1 -18 4
-18 9 0 14 15 11 33 -1 5 3 6 9 2 6 -3 8 -10 5 -15 -3 -5 0 -12 6 -16 8 -5 9
-3 4 6 -6 10 -4 12 10 6 11 -4 22 -1 28 6 6 9 7 8 3 -4 -3 -10 -1 -18 4 -18
10 0 14 15 11 34 -1 5 5 4 13 -4 19 -15 21 -24 4 -14 -7 4 -10 3 -5 -1 4 -5
19 -9 33 -10 24 -1 24 0 7 13 -17 14 -17 14 0 8 10 -3 23 -6 28 -6 4 0 6 -8 3
-17 -4 -11 -2 -14 3 -7 4 5 24 10 45 10 25 -1 33 2 27 10 -5 7 -3 11 6 11 8 0
15 -4 15 -8 0 -3 12 -9 27 -12 27 -5 27 -5 8 10 -18 14 -18 15 -2 9 10 -3 23
-6 28 -6 4 0 6 -8 3 -17 -4 -11 -2 -14 3 -8 4 6 29 10 55 10 25 0 44 4 40 9
-3 5 3 6 13 2 11 -4 22 -1 28 6 6 9 7 8 3 -4 -3 -10 -1 -18 4 -18 9 0 14 15
11 33 -1 5 3 6 9 2 6 -3 8 -10 5 -15 -3 -5 0 -12 6 -16 8 -5 9 -3 4 6 -6 10
-4 12 10 6 11 -4 22 -1 28 6 6 9 7 8 3 -4 -3 -10 -1 -18 4 -18 9 0 14 15 11
33 -1 5 12 -1 29 -13 21 -15 30 -18 30 -8 0 8 10 14 24 14 14 0 22 -4 20 -8
-3 -5 -9 -6 -14 -3 -5 3 -11 2 -13 -3 -3 -4 12 -7 34 -7 35 0 38 1 22 14 -17
13 -17 13 0 7 10 -3 23 -6 28 -6 4 0 6 -8 3 -17 -4 -14 -3 -15 4 -5 13 19 16
19 37 2 14 -11 17 -12 10 -1 -6 11 -1 13 23 9 22 -3 29 -1 23 6 -6 7 -1 11 15
12 20 2 23 -1 13 -12 -7 -8 -9 -17 -5 -21 3 -3 6 -1 6 5 0 7 9 12 21 12 11 0
17 4 14 10 -4 6 1 7 11 3 13 -5 15 -3 10 8 -4 8 -1 6 7 -3 16 -21 32 -24 21
-5 -4 7 -3 9 2 4 5 -5 9 -12 10 -15 0 -4 3 -14 7 -22 3 -8 8 -31 11 -50 10
-69 50 -217 68 -255 5 -12 10 -27 11 -35 2 -8 6 -20 9 -26 38 -59 -2 -173 -92
-263 l-31 -31 25 2 c14 1 26 5 26 9 0 4 9 9 20 12 30 8 30 8 28 0 -2 -4 -9 -8
-16 -10 -8 -1 -17 -5 -20 -8 -4 -4 2 -5 13 -3 13 2 19 -2 17 -10 -1 -8 2 -11
8 -7 6 3 8 11 5 16 -4 5 5 14 19 21 29 13 31 18 14 38 -7 8 -4 7 7 -2 15 -13
24 -14 35 -7 13 9 13 10 0 6 -11 -3 -16 2 -18 16 0 12 2 17 6 11 4 -6 18 -13
31 -17 18 -4 21 -3 12 6 -6 6 -11 15 -11 21 0 5 9 -1 20 -14 11 -12 17 -27 14
-31 -3 -5 0 -9 5 -9 6 0 11 -7 11 -15 0 -8 5 -15 10 -15 6 0 10 -5 10 -12 0
-6 11 -26 26 -45 14 -18 22 -38 19 -43 -3 -6 0 -10 7 -10 14 0 54 -59 50 -73
-1 -5 2 -6 8 -2 5 3 10 2 10 -3 0 -5 12 -21 26 -35 16 -16 23 -31 18 -39 -4
-7 -4 -10 0 -6 12 10 67 -44 61 -59 -3 -8 0 -11 6 -8 11 8 40 -25 33 -37 -3
-4 3 -5 12 -1 12 4 15 3 10 -5 -4 -7 -1 -12 9 -12 11 0 15 -5 12 -14 -4 -11
-1 -13 10 -9 12 5 14 1 8 -18 -4 -17 -3 -20 3 -10 12 17 35 4 28 -15 -3 -8 0
-11 8 -8 8 3 21 -5 30 -18 9 -12 16 -19 16 -14 0 5 8 -1 19 -12 10 -12 21 -19
25 -15 3 3 6 -1 6 -11 0 -11 4 -14 12 -10 8 5 9 2 4 -11 -5 -15 -4 -16 8 -6
12 10 18 7 31 -16 9 -16 14 -20 11 -8 -6 20 -6 20 9 1 8 -11 15 -16 15 -11 0
4 12 -5 26 -21 15 -16 23 -23 19 -15 -6 10 -4 12 4 7 7 -5 10 -14 7 -22 -3 -8
-1 -14 4 -14 6 0 10 5 10 11 0 5 5 7 10 4 6 -4 8 -11 5 -16 -3 -5 1 -6 9 -3 9
3 16 1 16 -6 0 -6 5 -8 12 -4 8 5 9 2 5 -9 -7 -19 8 -32 19 -16 5 8 3 9 -6 4
-9 -6 -11 -4 -5 5 6 10 10 10 19 -2 6 -8 17 -13 23 -11 7 3 16 -2 19 -11 3 -9
10 -13 15 -10 5 3 12 -2 15 -10 4 -10 18 -16 36 -16 26 0 29 -2 18 -15 -11
-14 -10 -14 12 -6 18 7 30 5 48 -9 13 -10 30 -16 37 -13 7 3 13 0 13 -7 0 -6
-5 -8 -12 -4 -6 4 -8 3 -5 -3 4 -6 18 -8 32 -5 14 2 25 0 25 -6 0 -6 12 -10
27 -9 16 1 28 -4 30 -13 4 -13 3 -13 -7 0 -10 13 -11 13 -7 0 2 -8 10 -14 17
-12 7 1 18 -2 24 -7 9 -8 13 -7 13 4 0 8 -4 12 -9 9 -4 -3 -8 0 -8 7 0 6 8 9
18 7 13 -4 18 2 19 24 0 15 -4 28 -11 28 -6 0 -3 5 7 11 9 6 15 14 12 20 -4 5
-2 9 3 9 5 0 10 -23 11 -50 2 -61 34 -108 60 -87 12 9 13 9 7 0 -4 -8 -1 -13
9 -13 10 0 13 5 9 13 -5 8 -2 8 9 -2 9 -7 17 -10 17 -6 0 4 6 2 13 -4 8 -6 17
-8 20 -4 4 3 7 2 7 -4 0 -6 11 -13 25 -15 13 -3 22 -2 20 3 -3 4 0 11 6 15 8
4 9 3 5 -4 -4 -7 -2 -12 4 -12 6 0 8 -4 5 -10 -3 -5 -3 -10 2 -10 8 0 12
-1219 3 -1221 -3 -1 -281 -2 -619 -3 -634 -1 -663 1 -633 37 10 12 10 17 1 23
-8 5 -10 3 -4 -7 5 -8 4 -10 0 -6 -12 11 -15 37 -4 37 5 0 9 5 9 11 0 5 -4 8
-9 4 -16 -10 -23 15 -9 32 9 12 9 15 1 9 -13 -7 -17 1 -15 41 1 13 -4 23 -10
23 -6 0 -8 9 -5 20 3 11 1 23 -4 26 -5 3 -7 10 -4 15 4 5 2 9 -3 9 -5 0 -12 9
-15 20 -3 13 -1 18 6 13 7 -3 4 3 -5 14 -10 11 -18 26 -18 34 0 8 -4 19 -9 25
-5 5 -11 20 -13 34 -1 14 -9 31 -16 38 -7 8 -10 18 -7 23 4 5 3 9 -2 9 -4 0
-13 11 -20 25 -8 19 -8 23 0 18 7 -3 2 5 -11 19 -13 14 -24 35 -25 46 -1 21
-22 36 -36 27 -5 -2 -6 6 -4 19 3 13 -2 35 -11 48 -9 14 -13 28 -9 33 5 4 2 5
-4 1 -8 -4 -13 -1 -13 8 0 9 -3 16 -8 16 -11 0 -57 80 -54 93 2 7 0 9 -4 5 -3
-4 -20 9 -35 30 -37 48 -63 78 -105 123 -18 20 -30 40 -26 45 4 4 2 4 -4 1 -6
-4 -22 6 -36 21 -206 226 -613 445 -943 507 -116 22 -116 22 -109 40 3 8 11
12 17 8 6 -3 7 -1 3 5 -4 6 -12 9 -20 6 -7 -3 -13 2 -13 10 0 8 6 12 13 9 6
-2 15 1 19 7 3 6 1 9 -5 8 -7 -2 -16 7 -21 20 -6 15 -5 21 1 17 6 -4 9 14 6
49 -3 47 -1 54 13 49 13 -4 13 -3 2 5 -7 5 -11 15 -7 21 4 6 2 9 -7 5 -8 -3
-14 1 -14 10 0 8 6 12 16 9 13 -5 14 -3 4 8 -18 19 -16 29 5 22 14 -5 14 -3
-2 9 -19 15 -31 63 -14 52 5 -4 7 14 4 41 -4 28 -2 44 4 40 6 -3 7 1 4 9 -3 9
-10 13 -15 10 -5 -3 -6 2 -3 10 3 9 9 14 13 11 4 -2 5 9 3 25 -2 17 -7 28 -11
25 -4 -2 -8 2 -8 9 0 8 6 12 13 9 6 -2 15 1 19 7 3 6 1 9 -5 8 -7 -2 -16 7
-21 20 -6 15 -5 21 1 17 6 -4 9 14 6 49 -3 47 -1 54 13 49 13 -4 13 -3 2 5 -7
5 -11 15 -7 21 4 6 2 9 -7 5 -8 -3 -14 1 -14 10 0 8 6 12 16 9 13 -5 14 -3 4
8 -18 19 -16 29 5 22 14 -5 14 -3 -2 9 -19 15 -31 63 -14 52 5 -4 7 14 4 41
-4 28 -2 44 4 40 6 -3 7 1 4 9 -3 9 -10 13 -15 10 -5 -3 -6 2 -3 10 3 9 9 14
13 11 4 -2 5 9 3 25 -2 17 -7 28 -11 25 -4 -2 -8 2 -8 9 0 8 6 12 13 9 6 -2
15 1 19 7 4 6 1 9 -7 8 -7 -2 -12 4 -10 14 2 10 -2 28 -9 40 -9 19 -9 21 2 11
7 -7 18 -13 24 -13 5 0 4 4 -4 9 -12 8 -12 13 -3 24 10 11 9 17 -3 27 -20 17
-19 31 3 23 10 -4 8 2 -8 15 -22 18 -23 21 -8 27 10 4 16 10 14 14 -2 3 3 13
12 21 14 13 15 13 10 -1 -4 -9 -1 -16 8 -16 7 0 11 4 8 9 -5 8 3 28 12 28 3 0
2 -4 -1 -10z m2660 -10 c-3 -5 0 -12 6 -16 8 -5 9 -3 4 6 -6 10 -4 12 10 6 11
-4 22 -1 28 6 6 9 7 8 3 -4 -3 -10 -1 -18 4 -18 10 0 14 15 10 35 -1 6 2 6 7
2 4 -5 9 -13 9 -18 1 -5 2 -11 3 -14 0 -3 10 -1 21 5 25 13 22 76 24 -538 l1
-504 -40 7 c-119 19 -314 103 -452 194 -102 68 -246 198 -236 214 3 6 1 7 -5
3 -13 -8 -59 50 -54 68 2 6 0 8 -4 4 -9 -10 -35 12 -28 23 3 5 1 9 -4 9 -12 0
-45 50 -45 67 0 7 -3 10 -7 8 -11 -7 -33 42 -26 54 5 7 1 8 -10 4 -14 -5 -16
-3 -10 12 4 11 4 16 0 12 -4 -3 -15 10 -25 31 -51 106 -57 125 -52 139 5 12 3
14 -7 8 -10 -6 -12 -3 -7 14 3 14 0 24 -9 28 -8 3 -12 9 -9 13 3 5 1 12 -5 15
-8 5 -7 12 2 23 7 9 8 13 2 9 -17 -10 -28 41 -13 59 6 8 16 11 22 7 6 -3 7 -1
3 6 -4 6 -11 9 -15 7 -4 -3 -13 0 -21 5 -11 7 -8 8 10 5 14 -2 31 2 39 8 9 7
12 7 9 1 -4 -6 2 -17 14 -24 15 -9 18 -9 13 0 -6 8 1 10 23 7 22 -3 29 -1 23
6 -6 7 -1 11 15 12 20 2 23 -1 13 -12 -7 -8 -9 -17 -5 -21 3 -3 6 -1 6 5 0 7
9 12 21 12 11 0 17 4 14 10 -7 11 23 2 43 -13 8 -6 12 -5 12 5 0 8 10 14 24
14 14 0 22 -4 20 -8 -3 -5 -9 -6 -14 -3 -5 3 -11 2 -13 -3 -3 -4 12 -7 34 -7
35 0 38 1 22 14 -17 13 -17 13 0 7 10 -3 23 -6 28 -6 4 0 6 -8 3 -17 -4 -14
-3 -15 4 -5 13 19 16 19 37 2 14 -11 17 -12 10 -1 -6 11 -1 13 23 9 22 -3 29
-1 23 6 -6 7 -1 11 15 12 20 2 23 -1 13 -12 -7 -8 -9 -17 -5 -21 3 -3 6 -1 6
5 0 7 9 12 21 12 11 0 17 4 14 10 -7 11 23 2 43 -13 8 -6 12 -5 12 5 0 8 10
14 24 14 14 0 22 -4 20 -8 -3 -5 -9 -6 -14 -3 -5 3 -11 2 -13 -3 -3 -4 12 -7
34 -7 35 0 38 1 22 14 -17 13 -17 13 0 7 10 -3 23 -6 28 -6 4 0 6 -8 3 -17 -4
-14 -3 -15 4 -5 13 19 16 19 37 2 14 -11 17 -12 10 -1 -6 11 -1 13 23 9 22 -3
29 -1 23 6 -6 7 -1 11 15 12 20 2 23 -1 13 -12 -7 -8 -9 -17 -5 -21 3 -3 6 -1
6 5 0 7 9 12 21 12 11 0 17 4 14 10 -4 6 4 6 21 0 21 -8 30 -8 37 2 6 9 7 8 3
-4 -3 -10 -1 -18 4 -18 9 0 14 15 11 33 -1 5 3 6 9 2 6 -3 8 -10 5 -15z m96
-3 c-10 -9 -11 -8 -5 6 3 10 9 15 12 12 3 -3 0 -11 -7 -18z m-2307 5 c3 -5 -1
-9 -9 -9 -8 0 -15 4 -15 9 0 4 4 8 9 8 6 0 12 -4 15 -8z m193 1 c-9 -8 -57
-13 -57 -6 0 5 14 9 31 9 16 1 28 0 26 -3z m-687 -118 c0 -12 -19 -12 -23 0
-4 9 -1 12 9 8 7 -3 14 -7 14 -8z m3597 -530 c0 -8 -4 -12 -9 -9 -5 3 -6 10
-3 15 9 13 12 11 12 -6z m-106 -192 c-12 -20 -14 -14 -5 12 4 9 9 14 11 11 3
-2 0 -13 -6 -23z m-121 -442 c0 -6 -4 -12 -8 -15 -5 -3 -9 1 -9 9 0 8 4 15 9
15 4 0 8 -4 8 -9z m-3370 -516 c-8 -10 -9 -15 -2 -15 6 0 15 7 20 15 7 14 11
13 32 -5 27 -23 27 -23 36 -8 4 6 3 8 -4 4 -6 -3 -13 -2 -17 3 -7 12 26 7 54
-8 11 -6 24 -10 28 -9 19 5 52 -23 47 -40 -5 -16 -5 -16 6 1 12 19 30 23 30 6
0 -5 -5 -7 -12 -3 -7 4 -8 3 -4 -4 5 -9 13 -9 28 -1 18 10 20 9 14 -6 -5 -15
-4 -16 8 -6 11 10 16 9 23 -4 5 -9 19 -17 30 -18 12 0 19 -5 17 -9 -3 -4 4 -8
15 -8 26 0 78 -32 98 -60 8 -12 21 -19 29 -16 8 3 14 -1 14 -9 0 -8 5 -15 11
-15 5 0 7 6 3 13 -4 6 8 -1 26 -18 18 -16 42 -38 54 -48 59 -50 146 -137 146
-147 0 -6 5 -8 10 -5 6 3 11 1 11 -4 1 -6 2 -15 3 -20 0 -5 5 -13 10 -18 6 -5
6 -2 1 7 -8 13 -7 13 8 1 9 -7 17 -19 17 -26 0 -7 7 -16 16 -19 10 -4 14 -12
10 -23 -4 -10 -4 -14 0 -11 12 13 102 -125 96 -148 -1 -6 5 -11 13 -11 8 0 15
5 15 11 1 6 8 0 16 -14 14 -24 15 -24 11 -2 -4 15 -1 20 6 15 20 -13 35 -12
41 2 3 9 -2 12 -15 10 -11 -2 -17 0 -14 5 6 9 24 8 42 -3 9 -5 11 -3 7 6 -3 8
0 18 7 23 8 4 10 3 5 -4 -4 -7 -1 -12 9 -12 12 0 15 6 10 23 -4 15 -3 18 3 8
7 -9 12 -10 16 -2 4 6 12 11 18 11 6 0 5 -7 -3 -17 -13 -15 -12 -15 8 -3 17
11 19 17 11 28 -9 10 -8 12 3 10 8 -2 13 2 12 9 -2 7 7 10 24 7 24 -5 25 -3
13 13 -12 15 -12 16 0 6 8 -7 21 -13 30 -13 12 0 13 2 1 9 -11 7 -9 10 10 13
17 2 23 8 21 21 -2 13 2 17 15 15 11 -2 18 3 17 13 -1 9 5 16 12 16 9 0 10 -5
4 -16 -12 -24 -117 -121 -129 -121 -6 0 -11 -3 -11 -7 0 -5 -16 -19 -35 -32
-19 -13 -45 -32 -57 -43 -13 -11 -35 -27 -50 -36 -16 -9 -28 -20 -28 -24 0 -5
14 -50 30 -100 17 -51 33 -105 36 -122 3 -16 7 -33 10 -38 3 -4 2 -9 -3 -9
-39 -6 -1053 -2 -1053 4 0 5 -6 5 -12 1 -9 -5 -9 -2 1 9 10 13 11 20 2 31 -8
9 -8 16 -2 20 6 4 7 14 4 23 -4 11 -3 14 5 9 8 -5 10 -2 6 8 -3 9 -10 13 -15
10 -5 -3 -6 2 -3 10 3 9 9 14 13 11 4 -2 5 9 3 25 -2 17 -7 28 -11 25 -4 -2
-8 2 -8 9 0 8 6 12 13 9 6 -2 15 1 19 7 3 6 1 9 -5 8 -7 -2 -16 7 -21 20 -6
15 -5 21 1 17 6 -4 9 14 6 49 -3 47 -1 54 13 49 13 -4 13 -3 2 5 -7 5 -11 15
-7 21 4 6 2 9 -7 5 -8 -3 -14 1 -14 10 0 8 6 12 16 9 13 -5 14 -3 4 8 -18 19
-16 29 5 22 14 -5 14 -3 -2 9 -19 15 -31 63 -14 52 5 -4 7 14 4 41 -4 28 -2
44 4 40 6 -3 7 1 4 9 -3 9 -10 13 -15 10 -5 -3 -6 2 -3 10 3 9 9 14 13 11 4
-2 5 9 3 25 -2 17 -7 28 -11 25 -4 -2 -8 2 -8 9 0 8 6 12 13 9 6 -2 15 1 19 7
3 6 1 9 -5 8 -7 -2 -16 7 -21 20 -6 15 -5 21 1 17 6 -4 9 14 6 49 -3 47 -1 54
13 49 13 -4 13 -3 2 5 -7 5 -11 15 -7 21 4 6 2 9 -7 5 -8 -3 -14 1 -14 10 0 8
6 12 16 9 13 -5 14 -3 4 8 -18 19 -16 29 5 22 11 -4 8 1 -8 15 -16 14 -19 20
-8 16 15 -5 16 -2 8 22 -5 16 -8 38 -6 49 3 11 5 23 5 28 1 4 6 7 12 7 8 0 8
-5 -1 -15z m1217 -541 c-3 -3 -12 -4 -19 -1 -8 3 -5 6 6 6 11 1 17 -2 13 -5z
m-1839 -264 c-7 -10 -14 -17 -17 -15 -4 4 18 35 25 35 2 0 -1 -9 -8 -20z m122
-760 c0 -5 -2 -10 -4 -10 -3 0 -8 5 -11 10 -3 6 -1 10 4 10 6 0 11 -4 11 -10z
m1235 1 c-9 -8 -36 -10 -30 -2 2 4 11 8 20 8 8 0 13 -3 10 -6z m125 3 c0 -8
-19 -13 -24 -6 -3 5 1 9 9 9 8 0 15 -2 15 -3z m35 -4 c-3 -5 -12 -10 -18 -10
-7 0 -6 4 3 10 19 12 23 12 15 0z m125 4 c0 -8 -19 -13 -24 -6 -3 5 1 9 9 9 8
0 15 -2 15 -3z m35 -4 c-3 -5 -12 -10 -18 -10 -7 0 -6 4 3 10 19 12 23 12 15
0z m125 4 c0 -8 -19 -13 -24 -6 -3 5 1 9 9 9 8 0 15 -2 15 -3z m35 -4 c-3 -5
-12 -10 -18 -10 -7 0 -6 4 3 10 19 12 23 12 15 0z m125 4 c0 -8 -19 -13 -24
-6 -3 5 1 9 9 9 8 0 15 -2 15 -3z m1320 0 c0 -8 -19 -13 -24 -6 -3 5 1 9 9 9
8 0 15 -2 15 -3z m120 0 c0 -8 -19 -13 -24 -6 -3 5 1 9 9 9 8 0 15 -2 15 -3z
m35 -4 c-3 -5 -12 -10 -18 -10 -7 0 -6 4 3 10 19 12 23 12 15 0z m125 4 c0 -8
-19 -13 -24 -6 -3 5 1 9 9 9 8 0 15 -2 15 -3z m35 -4 c-3 -5 -12 -10 -18 -10
-7 0 -6 4 3 10 19 12 23 12 15 0z m125 4 c0 -8 -19 -13 -24 -6 -3 5 1 9 9 9 8
0 15 -2 15 -3z m35 -4 c-3 -5 -12 -10 -18 -10 -7 0 -6 4 3 10 19 12 23 12 15
0z m125 4 c0 -8 -19 -13 -24 -6 -3 5 1 9 9 9 8 0 15 -2 15 -3z m-1014 -123 c8
6 14 9 14 5 0 -3 0 -9 0 -13 0 -4 -11 -8 -24 -9 -18 0 -23 3 -18 15 4 10 7 11
10 3 3 -10 7 -10 18 -1z m230 -87 c1 -9 0 -13 -4 -10 -3 4 -7 14 -8 22 -1 9 0
13 4 10 3 -4 7 -14 8 -22z"/>
<path d="M1185 3600 c-3 -5 -1 -10 4 -10 6 0 11 5 11 10 0 6 -2 10 -4 10 -3 0
-8 -4 -11 -10z"/>
<path d="M1196 3433 c-6 -14 -5 -15 5 -6 7 7 10 15 7 18 -3 3 -9 -2 -12 -12z"/>
<path d="M1185 3120 c-3 -5 -1 -10 4 -10 6 0 11 5 11 10 0 6 -2 10 -4 10 -3 0
-8 -4 -11 -10z"/>
<path d="M1196 2953 c-6 -14 -5 -15 5 -6 7 7 10 15 7 18 -3 3 -9 -2 -12 -12z"/>
<path d="M3550 2580 c0 -5 5 -10 11 -10 5 0 7 5 4 10 -3 6 -8 10 -11 10 -2 0
-4 -4 -4 -10z"/>
<path d="M3893 2456 c-3 -6 -3 -8 2 -4 4 4 13 3 20 -2 8 -7 12 -5 12 3 0 16
-25 18 -34 3z"/>
<path d="M1290 2219 c0 -5 4 -8 9 -4 5 3 12 1 16 -5 3 -5 11 -10 18 -10 6 0 2
7 -9 15 -23 17 -34 19 -34 4z"/>
<path d="M1350 2216 c0 -2 8 -10 18 -17 15 -13 16 -12 3 4 -13 16 -21 21 -21
13z"/>
<path d="M1558 2113 c7 -3 16 -2 19 1 4 3 -2 6 -13 5 -11 0 -14 -3 -6 -6z"/>
<path d="M1710 2016 c0 -2 8 -10 18 -17 15 -13 16 -12 3 4 -13 16 -21 21 -21
13z"/>
<path d="M1196 1993 c-6 -14 -5 -15 5 -6 7 7 10 15 7 18 -3 3 -9 -2 -12 -12z"/>
<path d="M1185 1680 c-3 -5 -1 -10 4 -10 6 0 11 5 11 10 0 6 -2 10 -4 10 -3 0
-8 -4 -11 -10z"/>
<path d="M2346 1651 c-4 -5 -2 -12 3 -15 5 -4 12 -2 15 3 4 5 2 12 -3 15 -5 4
-12 2 -15 -3z"/>
<path d="M1196 1513 c-6 -14 -5 -15 5 -6 7 7 10 15 7 18 -3 3 -9 -2 -12 -12z"/>
<path d="M1186 1258 c3 -5 10 -6 15 -3 13 9 11 12 -6 12 -8 0 -12 -4 -9 -9z"/>
<path d="M4569 4213 c-13 -16 -12 -17 4 -4 9 7 17 15 17 17 0 8 -8 3 -21 -13z"/>
<path d="M4565 4180 c-3 -5 -1 -10 4 -10 6 0 11 5 11 10 0 6 -2 10 -4 10 -3 0
-8 -4 -11 -10z"/>
<path d="M4569 3573 c-13 -16 -12 -17 4 -4 9 7 17 15 17 17 0 8 -8 3 -21 -13z"/>
<path d="M4565 3540 c-3 -5 -1 -10 4 -10 6 0 11 5 11 10 0 6 -2 10 -4 10 -3 0
-8 -4 -11 -10z"/>
<path d="M4731 3276 c-8 -10 -9 -16 -1 -21 5 -3 10 1 10 10 0 10 5 13 12 9 7
-4 8 -3 4 4 -9 15 -11 15 -25 -2z"/>
<path d="M4569 2293 c-13 -16 -12 -17 4 -4 9 7 17 15 17 17 0 8 -8 3 -21 -13z"/>
<path d="M4565 2260 c-3 -5 -1 -10 4 -10 6 0 11 5 11 10 0 6 -2 10 -4 10 -3 0
-8 -4 -11 -10z"/>
<path d="M4569 1653 c-13 -16 -12 -17 4 -4 9 7 17 15 17 17 0 8 -8 3 -21 -13z"/>
<path d="M4565 1620 c-3 -5 -1 -10 4 -10 6 0 11 5 11 10 0 6 -2 10 -4 10 -3 0
-8 -4 -11 -10z"/>
<path d="M4569 1013 c-13 -16 -12 -17 4 -4 9 7 17 15 17 17 0 8 -8 3 -21 -13z"/>
<path d="M4565 980 c-3 -5 -1 -10 4 -10 6 0 11 5 11 10 0 6 -2 10 -4 10 -3 0
-8 -4 -11 -10z"/>
<path d="M916 662 c-3 -5 1 -9 9 -9 8 0 12 4 9 9 -3 4 -7 8 -9 8 -2 0 -6 -4
-9 -8z"/>
<path d="M1156 662 c-3 -5 1 -9 9 -9 8 0 12 4 9 9 -3 4 -7 8 -9 8 -2 0 -6 -4
-9 -8z"/>
<path d="M1396 662 c-3 -5 1 -9 9 -9 8 0 12 4 9 9 -3 4 -7 8 -9 8 -2 0 -6 -4
-9 -8z"/>
<path d="M1636 662 c-3 -5 1 -9 9 -9 8 0 12 4 9 9 -3 4 -7 8 -9 8 -2 0 -6 -4
-9 -8z"/>
<path d="M2756 662 c-3 -5 1 -9 9 -9 8 0 12 4 9 9 -3 4 -7 8 -9 8 -2 0 -6 -4
-9 -8z"/>
<path d="M2996 662 c-3 -5 1 -9 9 -9 8 0 12 4 9 9 -3 4 -7 8 -9 8 -2 0 -6 -4
-9 -8z"/>
<path d="M3486 538 c3 -5 10 -6 15 -3 13 9 11 12 -6 12 -8 0 -12 -4 -9 -9z"/>
</g>
</svg>
